<?xml version="1.0" standalone="no"?>
<!DOCTYPE svg PUBLIC "-//W3C//DTD SVG 20010904//EN"
 "http://www.w3.org/TR/2001/REC-SVG-20010904/DTD/svg10.dtd">
<svg version="1.0" xmlns="http://www.w3.org/2000/svg"
 width="123.000000pt" height="123.000000pt" viewBox="0 0 123.000000 123.000000"
 preserveAspectRatio="xMidYMid meet">
<metadata>
Created by potrace 1.11, written by Peter Selinger 2001-2013
</metadata>
<g transform="translate(0.000000,123.000000) scale(0.100000,-0.100000)"
fill="#000000" stroke="none">
<path d="M330 1219 c-146 -16 -127 -83 35 -119 238 -54 623 -74 708 -37 20 9
37 21 37 26 0 38 -122 82 -295 107 -22 3 -50 7 -62 9 -88 14 -343 23 -423 14z
m360 -53 c8 -2 42 -7 75 -10 116 -11 258 -43 249 -58 -7 -11 -287 -8 -374 3
-30 4 -79 11 -109 14 -30 3 -57 8 -60 9 -3 2 -24 7 -46 10 -172 27 -135 45 85
41 91 -2 172 -6 180 -9z"/>
<path d="M420 1033 c-33 -42 -37 -78 -14 -137 5 -14 2 -14 -27 -4 -52 18 -109
59 -125 90 -18 34 -28 30 -53 -21 -26 -50 -32 -108 -15 -156 7 -22 11 -41 9
-43 -2 -2 -24 16 -49 41 l-45 46 -7 -37 c-26 -135 23 -223 143 -258 58 -17
144 -15 210 5 17 5 34 7 36 4 8 -7 137 -6 187 2 25 4 68 13 96 21 42 12 57 12
80 2 91 -39 157 -112 189 -208 15 -46 32 -59 72 -60 22 0 35 155 20 252 -16
111 -69 201 -151 257 -51 35 -185 83 -325 117 -121 29 -149 42 -184 84 l-26
30 -21 -27z"/>
<path d="M183 423 c4 -54 7 -99 7 -100 0 -7 32 -2 54 8 15 7 30 26 37 48 7 20
23 53 36 74 13 20 20 37 16 37 -59 4 -105 11 -128 20 l-28 11 6 -98z"/>
<path d="M261 320 c-104 -28 -127 -53 -77 -85 15 -10 27 -30 31 -53 21 -112
105 -184 206 -176 109 8 186 102 177 216 -3 43 -3 43 33 45 43 2 80 -19 63
-37 -14 -14 -7 -74 13 -115 36 -72 91 -107 167 -108 97 -2 159 49 191 156 8
27 26 60 40 73 20 18 24 28 16 41 -27 51 -284 79 -362 40 -26 -13 -43 -15 -60
-9 -13 5 -44 7 -69 5 -73 -7 -83 -6 -125 10 -54 22 -154 20 -244 -3z m244 -24
c64 -27 83 -121 39 -195 -25 -42 -101 -80 -150 -74 -94 10 -150 82 -142 181 4
46 10 59 34 78 44 35 147 40 219 10z m477 0 c42 -20 57 -52 53 -113 -7 -123
-125 -191 -233 -135 -53 27 -75 63 -80 130 -4 51 -1 62 22 89 43 51 162 65
238 29z"/>
<path d="M388 197 l-37 -23 44 -27 c46 -27 77 -19 35 10 l-21 15 20 15 c23 16
28 33 9 33 -7 0 -30 -11 -50 -23z"/>
<path d="M831 198 c-7 -24 -15 -51 -17 -60 -3 -10 -1 -18 4 -18 5 0 18 27 29
60 13 41 16 60 8 60 -7 0 -17 -19 -24 -42z"/>
<path d="M874 218 c-4 -6 -3 -13 2 -15 5 -2 16 -8 24 -13 13 -9 11 -13 -10
-29 -38 -30 -16 -37 35 -10 24 13 41 26 37 30 -4 3 -24 16 -44 28 -27 16 -38
19 -44 9z"/>
</g>
</svg>
